HIERARCHY
ROOT Hips
{
	OFFSET 0.000000 0.000000 0.000000
	CHANNELS 6 Xposition Yposition Zposition Zrotation Yrotation Xrotation 
	JOINT LowerBack
	{
		OFFSET 0.000000 0.000000 0.000000
		CHANNELS 3 Zrotation Yrotation Xrotation
		JOINT Spine
		{
			OFFSET 0.028270 2.035590 -0.193380
			CHANNELS 3 Zrotation Yrotation Xrotation
			JOINT Spine1
			{
				OFFSET 0.056720 2.048850 -0.042750
				CHANNELS 3 Zrotation Yrotation Xrotation
				JOINT Neck
				{
					OFFSET 0.000000 0.000000 0.000000
					CHANNELS 3 Zrotation Yrotation Xrotation
					JOINT Neck1
					{
						OFFSET -0.054170 1.746240 0.172020
						CHANNELS 3 Zrotation Yrotation Xrotation
						JOINT Head
						{
							OFFSET 0.104070 1.761360 -0.123970
							CHANNELS 3 Zrotation Yrotation Xrotation
							End Site
							{
								OFFSET 0.000000 0.000000 0.000000
							}
						}
					}
				}
				JOINT LeftShoulder
				{
					OFFSET 0.000000 0.000000 0.000000
					CHANNELS 3 Zrotation Yrotation Xrotation
					JOINT LeftArm
					{
						OFFSET 3.362410 1.200890 -0.311210
						CHANNELS 3 Zrotation Yrotation Xrotation
						JOINT LeftForeArm
						{
							OFFSET 4.983000 -0.000000 -0.000000
							CHANNELS 3 Zrotation Yrotation Xrotation
							JOINT LeftHand
							{
								OFFSET 3.483560 -0.000000 -0.000000
								CHANNELS 3 Zrotation Yrotation Xrotation
								JOINT LeftFingerBase
								{
									OFFSET 0.000000 0.000000 0.000000
									CHANNELS 3 Zrotation Yrotation Xrotation
									JOINT LeftHandIndex1
									{
										OFFSET 0.715260 -0.000000 -0.000000
										CHANNELS 3 Zrotation Yrotation Xrotation
										End Site
										{
											OFFSET 0.000000 0.000000 0.000000
										}
									}
								}
								JOINT LThumb
								{
									OFFSET 0.000000 0.000000 0.000000
									CHANNELS 3 Zrotation Yrotation Xrotation
									End Site
									{
										OFFSET 0.000000 0.000000 0.000000
									}
								}
							}
						}
					}
				}
				JOINT RightShoulder
				{
					OFFSET 0.000000 0.000000 0.000000
					CHANNELS 3 Zrotation Yrotation Xrotation
					JOINT RightArm
					{
						OFFSET -3.136600 1.374050 -0.404650
						CHANNELS 3 Zrotation Yrotation Xrotation
						JOINT RightForeArm
						{
							OFFSET -5.241900 -0.000000 -0.000000
							CHANNELS 3 Zrotation Yrotation Xrotation
							JOINT RightHand
							{
								OFFSET -3.444170 -0.000000 -0.000000
								CHANNELS 3 Zrotation Yrotation Xrotation
								JOINT RightFingerBase
								{
									OFFSET 0.000000 0.000000 0.000000
									CHANNELS 3 Zrotation Yrotation Xrotation
									JOINT RightHandIndex1
									{
										OFFSET -0.622530 -0.000000 -0.000000
										CHANNELS 3 Zrotation Yrotation Xrotation
										End Site
										{
											OFFSET 0.000000 0.000000 0.000000
										}
									}
								}
								JOINT RThumb
								{
									OFFSET 0.000000 0.000000 0.000000
									CHANNELS 3 Zrotation Yrotation Xrotation
									End Site
									{
										OFFSET 0.000000 0.000000 0.000000
									}
								}
							}
						}
					}
				}
			}
		}
	}
}
}
MOTION
Frames: 19
Frame Time: 0.008333
3.215857 16.935023 -3.500807 -177.871503 44.890724 -157.845306 -3.326425 1.361072 8.380938 -2.019027 1.533142 -1.357257 -7.608234 1.443945 0.606705 8.461827 6.732857 4.323957 -5.073597 -0.427786 2.672370 0.000000 0.000000 0.000000 -7.797640 -0.459853 1.767074 -64.630769 -7.601587 9.580317 -3.133165 -22.786016 -0.002150 2.975291 1.141650 0.029618 -0.053229 0.033223 -0.000000 0.000000 0.000000 0.000000 0.000000 0.000000 0.000000 20.288024 5.303551 0.080830 62.019719 23.986791 3.862919 2.904564 27.740671 0.011288 4.039093 8.597897 0.307112 0.016370 -0.118118 -0.000000 0.000000 0.000000 0.000000 0.000000 0.000000 0.000000 
3.296560 16.907473 -3.618417 -178.275783 44.812400 -158.138549 -3.859984 1.284190 8.368997 -2.145201 1.468752 -1.385200 -7.701460 1.378432 0.544035 8.627621 6.654721 4.294730 -5.142873 -0.431586 2.661191 0.000000 0.000000 0.000000 -7.578290 -0.706771 1.827439 -64.458818 -7.316778 9.726581 -3.171499 -22.227863 -0.002184 2.869294 1.301199 0.032707 -0.052529 0.032070 -0.000000 0.000000 0.000000 0.000000 0.000000 0.000000 0.000000 20.759656 5.170315 0.062985 62.583268 23.363025 3.888089 2.866596 27.909265 0.011012 4.067187 8.689800 0.312713 0.013852 -0.118426 -0.000000 0.000000 0.000000 0.000000 0.000000 0.000000 0.000000 
3.374444 16.883104 -3.733476 -178.699027 44.702825 -158.443463 -4.370286 1.206062 8.385614 -2.263586 1.402746 -1.403863 -7.782091 1.311595 0.483008 8.753098 6.580841 4.280064 -5.204381 -0.434969 2.653085 0.000000 0.000000 0.000000 -7.390162 -0.991497 1.887893 -64.265789 -7.111981 9.929573 -3.211601 -21.655365 -0.002238 2.746485 1.467509 0.035399 -0.052042 0.031378 -0.000000 0.000000 0.000000 0.000000 0.000000 0.000000 0.000000 21.157594 5.034590 0.041929 63.161100 22.770070 3.823474 2.825448 27.998318 0.010700 4.023320 8.816077 0.313914 0.011874 -0.119159 -0.000000 0.000000 0.000000 0.000000 0.000000 0.000000 0.000000 
3.448759 16.862335 -3.846151 -179.121726 44.567059 -158.752021 -4.838078 1.130409 8.434625 -2.369966 1.338328 -1.413148 -7.847751 1.246512 0.420811 8.827280 6.532997 4.289087 -5.255812 -0.437846 2.650524 0.000000 0.000000 0.000000 -7.242053 -1.313503 1.949088 -64.059904 -6.989103 10.169005 -3.252883 -21.067014 -0.002317 2.604979 1.643048 0.037693 -0.051753 0.031214 -0.000000 0.000000 0.000000 0.000000 0.000000 0.000000 0.000000 21.458106 4.920494 0.017367 63.756549 22.184331 3.643808 2.781799 28.019023 0.010352 3.925069 8.961666 0.311416 0.010309 -0.120181 -0.000000 0.000000 0.000000 0.000000 0.000000 0.000000 0.000000 
3.518837 16.845473 -3.956760 -179.521103 44.411227 -159.051989 -5.244014 1.060602 8.516349 -2.460464 1.278391 -1.412284 -7.897683 1.186160 0.360556 8.842313 6.515192 4.322354 -5.296964 -0.440176 2.653641 0.000000 0.000000 0.000000 -7.140753 -1.655007 2.009426 -63.850120 -6.968277 10.430578 -3.294990 -20.453919 -0.002423 2.447056 1.827694 0.039489 -0.051681 0.031659 -0.000000 0.000000 0.000000 0.000000 0.000000 0.000000 0.000000 21.651063 4.833295 -0.011326 64.364391 21.608472 3.361263 2.737645 27.971635 0.009979 3.783638 9.116039 0.305417 0.009161 -0.121315 -0.000000 0.000000 0.000000 0.000000 0.000000 0.000000 0.000000 
3.584147 16.832709 -4.065834 -179.870153 44.241265 -159.325671 -5.568318 0.999559 8.626880 -2.531312 1.225437 -1.401236 -7.932312 1.133115 0.306394 8.793708 6.527793 4.378111 -5.328459 -0.441962 2.662024 0.000000 0.000000 0.000000 -7.092179 -1.994682 2.066847 -63.644677 -7.068128 10.698634 -3.337188 -19.810577 -0.002556 2.278714 2.019611 0.040687 -0.051828 0.032775 -0.000000 0.000000 0.000000 0.000000 0.000000 0.000000 0.000000 21.733612 4.774450 -0.044406 64.974421 21.049335 2.997537 2.695627 27.856102 0.009594 3.613037 9.267793 0.296517 0.008444 -0.122365 -0.000000 0.000000 0.000000 0.000000 0.000000 0.000000 0.000000 
3.644653 16.824115 -4.173717 179.838102 44.063482 -159.571162 -5.810527 0.948688 8.762794 -2.583020 1.181009 -1.379929 -7.953224 1.089069 0.262386 8.684615 6.552279 4.451551 -5.353130 -0.443337 2.674351 0.000000 0.000000 0.000000 -7.089007 -2.331711 2.118438 -63.453633 -7.280052 10.929333 -3.377774 -19.150065 -0.002713 2.108652 2.218051 0.041487 -0.052097 0.034514 -0.000000 0.000000 0.000000 0.000000 0.000000 0.000000 0.000000 21.722114 4.723791 -0.079819 65.571299 20.534468 2.608474 2.658976 27.661337 0.009223 3.419986 9.408310 0.284917 0.008275 -0.123151 -0.000000 0.000000 0.000000 0.000000 0.000000 0.000000 0.000000 
3.700358 16.819640 -4.280935 179.624072 43.884334 -159.771597 -5.957544 0.908813 8.914022 -2.613058 1.145789 -1.351046 -7.961589 1.054493 0.227783 8.519193 6.615090 4.546350 -5.369741 -0.444242 2.691819 0.000000 0.000000 0.000000 -7.135064 -2.636783 2.164662 -63.279958 -7.617696 11.123062 -3.416348 -18.470453 -0.002895 1.952335 2.416375 0.041889 -0.052523 0.036937 -0.000000 0.000000 0.000000 0.000000 0.000000 0.000000 0.000000 21.613359 4.711809 -0.118991 66.151718 20.027400 2.161086 2.628426 27.418069 0.008888 3.242780 9.511683 0.273015 0.008348 -0.123479 -0.000000 0.000000 0.000000 0.000000 0.000000 0.000000 0.000000 
3.751729 16.819130 -4.387831 179.488930 43.708318 -159.925130 -6.016082 0.879350 9.072804 -2.623433 1.119577 -1.315610 -7.960172 1.029254 0.206062 8.308184 6.703881 4.656096 -5.380619 -0.444778 2.712750 0.000000 0.000000 0.000000 -7.220906 -2.897389 2.203238 -63.127834 -8.077719 11.260129 -3.451505 -17.785822 -0.003102 1.826134 2.608414 0.042393 -0.053033 0.039976 -0.000000 0.000000 0.000000 0.000000 0.000000 0.000000 0.000000 21.429464 4.725855 -0.161008 66.702852 19.542153 1.691208 2.606174 27.127147 0.008614 3.094916 9.566770 0.262013 0.008666 -0.123192 -0.000000 0.000000 0.000000 0.000000 0.000000 0.000000 0.000000 
3.799414 16.822358 -4.494607 179.429477 43.539081 -160.031142 -5.996428 0.859280 9.229789 -2.616890 1.101770 -1.275813 -7.951842 1.012686 0.197415 8.064837 6.806383 4.776767 -5.387959 -0.445076 2.736249 0.000000 0.000000 0.000000 -7.334340 -3.119007 2.232651 -62.999693 -8.630881 11.312543 -3.480981 -17.127607 -0.003334 1.747287 2.787906 0.043397 -0.053490 0.043467 -0.000000 0.000000 0.000000 0.000000 0.000000 0.000000 0.000000 21.194485 4.752955 -0.203619 67.213294 19.088448 1.230607 2.593956 26.789492 0.008420 2.986696 9.565767 0.252709 0.009228 -0.122194 0.000000 0.000000 0.000000 0.000000 0.000000 0.000000 0.000000 
3.844283 16.829034 -4.601322 179.436549 43.378737 -160.091949 -5.913583 0.846364 9.376553 -2.596974 1.090582 -1.233275 -7.939678 1.003025 0.203603 7.805014 6.923501 4.902508 -5.392552 -0.445149 2.760825 0.000000 0.000000 0.000000 -7.466649 -3.275935 2.252190 -62.891661 -9.285890 11.302382 -3.504756 -16.506752 -0.003596 1.732671 2.943274 0.045502 -0.053917 0.047332 -0.000000 0.000000 0.000000 0.000000 0.000000 0.000000 0.000000 20.928974 4.795631 -0.247922 67.679103 18.658460 0.777545 2.591638 26.421714 0.008308 2.935447 9.498571 0.246605 0.009865 -0.120389 -0.000000 0.000000 0.000000 0.000000 0.000000 0.000000 0.000000 
3.887342 16.838897 -4.707893 179.495402 43.227267 -160.113206 -5.787261 0.838775 9.504870 -2.568347 1.084616 -1.190917 -7.926597 0.998734 0.221008 7.545397 7.038794 5.030930 -5.396599 -0.445165 2.786155 0.000000 0.000000 0.000000 -7.600682 -3.398149 2.261546 -62.802262 -9.984378 11.201758 -3.520422 -15.975351 -0.003888 1.793749 3.067526 0.049007 -0.054150 0.051280 -0.000000 0.000000 0.000000 0.000000 0.000000 0.000000 0.000000 20.661036 4.835753 -0.290008 68.092663 18.261952 0.360473 2.599576 26.022837 0.008275 2.940683 9.366263 0.243500 0.010587 -0.117794 0.000000 0.000000 0.000000 0.000000 0.000000 0.000000 0.000000 
3.929377 16.851629 -4.814247 179.595086 43.082855 -160.097165 -5.635745 0.834213 9.607787 -2.535227 1.081870 -1.150991 -7.915591 0.997761 0.247693 7.301851 7.148394 5.158286 -5.400882 -0.445176 2.811479 0.000000 0.000000 0.000000 -7.725509 -3.486704 2.261153 -62.724708 -10.704654 11.031340 -3.527890 -15.564395 -0.004217 1.936704 3.149466 0.054111 -0.054206 0.055116 -0.000000 0.000000 0.000000 0.000000 0.000000 0.000000 0.000000 20.411300 4.870037 -0.329037 68.452458 17.894077 -0.021970 2.616523 25.604226 0.008301 3.004704 9.171098 0.243493 0.011294 -0.114455 0.000000 0.000000 0.000000 0.000000 0.000000 0.000000 0.000000 
3.971411 16.866974 -4.920002 179.717187 42.943408 -160.050777 -5.477010 0.830191 9.680107 -2.501492 1.080055 -1.115252 -7.908585 0.997829 0.282238 7.087853 7.249878 5.280242 -5.405587 -0.445188 2.835881 0.000000 0.000000 0.000000 -7.832736 -3.537700 2.251875 -62.650072 -11.435319 10.830863 -3.528399 -15.298719 -0.004585 2.159711 3.178731 0.060615 -0.054210 0.058675 -0.000000 0.000000 0.000000 0.000000 0.000000 0.000000 0.000000 20.195597 4.896982 -0.365032 68.760802 17.549914 -0.376517 2.640541 25.176669 0.008356 3.123022 8.922866 0.246186 0.011898 -0.110485 0.000000 0.000000 0.000000 0.000000 0.000000 0.000000 0.000000 
4.014132 16.884689 -5.024888 179.848429 42.805016 -159.977472 -5.326378 0.825171 9.717152 -2.470624 1.077701 -1.086147 -7.907414 0.997362 0.320059 6.914563 7.331568 5.395161 -5.412014 -0.445317 2.859289 0.000000 0.000000 0.000000 -7.910325 -3.580312 2.234897 -62.573574 -12.129233 10.606278 -3.522132 -15.217263 -0.004972 2.451124 3.144083 0.067719 -0.054205 0.061719 -0.000000 0.000000 0.000000 0.000000 0.000000 0.000000 0.000000 20.031936 4.904006 -0.395057 69.016869 17.231999 -0.697954 2.669773 24.747019 0.008415 3.283841 8.629807 0.250279 0.012398 -0.106042 0.000000 0.000000 0.000000 0.000000 0.000000 0.000000 0.000000 
4.057945 16.904553 -5.128532 179.977475 42.662418 -159.883506 -5.193752 0.815967 9.721834 -2.444351 1.071587 -1.062505 -7.912688 0.993383 0.364029 6.786061 7.403684 5.495594 -5.417814 -0.445353 2.879725 0.000000 0.000000 0.000000 -7.966199 -3.569887 2.212101 -62.477879 -12.832969 10.461243 -3.513803 -15.314287 -0.005397 2.796532 3.053214 0.074725 -0.054605 0.064344 -0.000000 0.000000 0.000000 0.000000 0.000000 0.000000 0.000000 19.915374 4.904929 -0.423643 69.233020 16.932086 -1.008565 2.701394 24.319906 0.008454 3.470026 8.326849 0.255170 0.012763 -0.101396 0.000000 0.000000 0.000000 0.000000 0.000000 0.000000 0.000000 
4.103185 16.926334 -5.230699 -179.902805 42.510949 -159.769052 -5.085487 0.802820 9.689753 -2.424195 1.061785 -1.048386 -7.924534 0.985538 0.402840 6.706434 7.451173 5.588121 -5.424944 -0.445543 2.899537 0.000000 0.000000 0.000000 -7.984004 -3.588625 2.185992 -62.366951 -13.444088 10.337011 -3.501455 -15.641310 -0.005797 3.170446 2.896164 0.080030 -0.055293 0.066287 -0.000000 0.000000 0.000000 0.000000 0.000000 0.000000 0.000000 19.858527 4.881992 -0.443423 69.406468 16.650641 -1.298246 2.733447 23.904054 0.008463 3.663847 8.015669 0.259262 0.013060 -0.096773 0.000000 0.000000 0.000000 0.000000 0.000000 0.000000 0.000000 
4.149846 16.949828 -5.331197 -179.796457 42.345971 -159.636424 -5.001569 0.783887 9.625023 -2.409819 1.046264 -1.042375 -7.942659 0.971961 0.438890 6.672118 7.477465 5.666705 -5.432004 -0.445747 2.917103 0.000000 0.000000 0.000000 -7.973261 -3.608718 2.158294 -62.230017 -13.999530 10.300469 -3.488802 -16.178992 -0.006159 3.549645 2.680909 0.082639 -0.056592 0.067728 -0.000000 0.000000 0.000000 0.000000 0.000000 0.000000 0.000000 19.852190 4.841193 -0.457533 69.546878 16.385860 -1.579532 2.763616 23.504934 0.008437 3.846338 7.721818 0.262155 0.013326 -0.092424 0.000000 0.000000 0.000000 0.000000 0.000000 0.000000 0.000000 
4.197703 16.974811 -5.429899 -179.703757 42.163114 -159.486906 -4.937727 0.758836 9.530547 -2.400003 1.024421 -1.045243 -7.965649 0.951841 0.466938 6.677257 7.484068 5.734565 -5.438343 -0.445977 2.933516 0.000000 0.000000 0.000000 -7.934479 -3.658627 2.131740 -62.065601 -14.470900 10.341663 -3.475877 -16.930630 -0.006450 3.910702 2.415633 0.081652 -0.058528 0.068750 -0.000000 0.000000 0.000000 0.000000 0.000000 0.000000 0.000000 19.887169 4.784572 -0.463998 69.659070 16.130168 -1.857141 2.789995 23.130067 0.008385 3.999461 7.459852 0.263348 0.013625 -0.088586 0.000000 0.000000 0.000000 0.000000 0.000000 0.000000 0.000000 
